<svg id="图层_1" data-name="图层 1" xmlns="http://www.w3.org/2000/svg" viewBox="0 0 836.04 379.15"><defs><style>.cls-1{fill:#82c1bc;}.cls-2{fill:#fff;}.cls-3{fill:none;stroke:#fff;stroke-miterlimit:10;stroke-width:22px;}</style></defs><title>MIFFlogo1</title><text x="-322.7" y="-194.91"></text><rect class="cls-1" x="119.59" y="248.03" width="89.98" height="91.21"/><rect class="cls-1" y="276.06" width="89.98" height="39.61"/><rect class="cls-1" x="239.16" y="226.87" width="89.98" height="120.56"/><path class="cls-2" d="M679.05,318.29v64h90v-64c0-6-4.56-10.89-10.18-10.89H689.23C683.61,307.4,679.05,312.27,679.05,318.29Z" transform="translate(-322.7 -194.91)"/><path class="cls-1" d="M758.84,574.07H689.23c-5.62,0-10.18-5.89-10.18-13.15V380.44h90V560.92C769,568.18,764.46,574.07,758.84,574.07Z" transform="translate(-322.7 -194.91)"/><path class="cls-2" d="M724,194.91a49,49,0,0,1,35.16,14.3Q774,223.52,774,243q0,20.85-14,34.22t-36,13.36q-21.91,0-35.95-13.36t-14-34.22q0-19.51,14.83-33.82A49,49,0,0,1,724,194.91Z" transform="translate(-322.7 -194.91)"/><polygon points="204.44 246.05 204.47 246.05 204.47 246.05 204.44 246.05 204.44 246.05"/><path class="cls-2" d="M442.29,561.93V531.65h90v30.28c0,6.46-3.21,11.7-7.16,11.7H449.45C445.5,573.62,442.29,568.38,442.29,561.93Z" transform="translate(-322.7 -194.91)"/><rect class="cls-1" x="602.59" y="247.62" width="89.98" height="90"/><path class="cls-2" d="M925.23,561.93V531.65h90v30.28c0,6.46-3.21,11.7-7.16,11.7H932.39C928.43,573.62,925.23,568.38,925.23,561.93Z" transform="translate(-322.7 -194.91)"/><path class="cls-2" d="M561.86,561.92V542h90v19.9c0,6.46-3.2,11.7-7.16,11.7H569C565.07,573.63,561.86,568.39,561.86,561.92Z" transform="translate(-322.7 -194.91)"/><rect class="cls-1" x="475.44" y="226.62" width="89.98" height="121.5"/><path class="cls-2" d="M798.13,561.92V542h90v19.9c0,6.46-3.21,11.7-7.16,11.7H805.29C801.34,573.63,798.13,568.39,798.13,561.92Z" transform="translate(-322.7 -194.91)"/><path class="cls-2" d="M558.73,406.82c1.21,2.48,2.57,10.82,3.08,15.57h90c-.39-34.67-7.5-65.92-21.37-84.27q-27.2-36.35-72.18-36.36-35.36,0-70.73,37.43-31.75-37.43-71.69-37.43-38.74,0-65.92,31.41t-27.19,76.32v61.94l90,0V430.08q0-29.67,14.92-29.68,8.17,0,11.42,6.42t3.25,23v13.8h90V430.08q0-29.67,15.16-29.68Q555.61,400.4,558.73,406.82Z" transform="translate(-322.7 -194.91)"/><path class="cls-2" d="M918.7,206.75q-33,0-63.39,21.79A132.67,132.67,0,0,0,810,284.81q-11.81,27-11.79,65.23v72.35h90V359.93q0-23.26,9.26-35.82t26.34-12.57c1,0,2.49.1,4.57.27V207Z" transform="translate(-322.7 -194.91)"/><path class="cls-2" d="M1045.86,211.47q-33,0-63.4,21.79a132.69,132.69,0,0,0-45.35,56.27q-11.79,27-11.79,65.22v88.54h90V364.64q0-23.25,9.26-35.82t26.35-12.56c1,0,2.48.09,4.57.27V211.74Z" transform="translate(-322.7 -194.91)"/><path class="cls-2" d="M322.72,562.57v-52h90v52c0,6.11-3.21,11.06-7.16,11.06H329.88C325.93,573.62,322.72,568.67,322.72,562.57Z" transform="translate(-322.7 -194.91)"/><path class="cls-3" d="M1058.35,379.07a74.23,74.23,0,0,1,0,105" transform="translate(-322.7 -194.91)"/><path class="cls-3" d="M1081.21,357a105.36,105.36,0,0,1,0,149.08" transform="translate(-322.7 -194.91)"/><path class="cls-3" d="M1036,399.82a44.88,44.88,0,0,1,0,63.52" transform="translate(-322.7 -194.91)"/></svg>