<svg id="图层_1" data-name="图层 1" xmlns="http://www.w3.org/2000/svg" viewBox="0 0 800.55 379.15"><defs><style>.cls-1{fill:#88cc85;}.cls-2{fill:#ffdd8b;}.cls-3{fill:#6f6fc1;}.cls-4{fill:#e6f3f2;}.cls-5{fill:#82c1bc;}.cls-6{fill:#ff8d98;}.cls-7{fill:#f79c7c;}.cls-8{fill:none;stroke:#f15a24;stroke-miterlimit:10;stroke-width:22px;}</style></defs><title>MIFFlogo2</title><rect class="cls-1" x="119.63" y="248.8" width="89.98" height="88.35"/><rect class="cls-2" x="0.06" y="276.06" width="89.98" height="39.61"/><rect class="cls-3" x="238.8" y="227.15" width="89.98" height="120.58"/><path class="cls-4" d="M665.7,296.89v64h90v-64c0-6-4.56-10.9-10.18-10.9H675.89C670.26,286,665.7,290.87,665.7,296.89Z" transform="translate(-309.21 -173.51)"/><path class="cls-5" d="M745.5,552.67H675.89c-5.63,0-10.19-5.89-10.19-13.15V359h90V539.52C755.68,546.78,751.12,552.67,745.5,552.67Z" transform="translate(-309.21 -173.51)"/><path class="cls-4" d="M710.69,173.51a49,49,0,0,1,35.15,14.3q14.83,14.31,14.84,33.82,0,20.85-14,34.21t-36,13.37q-21.91,0-36-13.37t-14-34.21q0-19.51,14.84-33.82A49,49,0,0,1,710.69,173.51Z" transform="translate(-309.21 -173.51)"/><polygon points="204.59 246.05 204.61 246.05 204.61 246.05 204.59 246.05 204.59 246.05"/><path class="cls-4" d="M428.85,540.52V510.24h90v30.29c0,6.46-3.2,11.7-7.16,11.7H436C432.06,552.22,428.85,547,428.85,540.52Z" transform="translate(-309.21 -173.51)"/><rect class="cls-6" x="602.73" y="247.74" width="89.98" height="89.5"/><path class="cls-4" d="M911.88,540.52V510.24h90v30.29c0,6.46-3.2,11.7-7.16,11.7H919.05C915.09,552.22,911.88,547,911.88,540.52Z" transform="translate(-309.21 -173.51)"/><path class="cls-4" d="M548,540.52v-19.9h90v19.9c0,6.46-3.21,11.7-7.16,11.7H555.17C551.21,552.23,548,547,548,540.52Z" transform="translate(-309.21 -173.51)"/><rect class="cls-7" x="475.6" y="226.36" width="89.98" height="121.21"/><path class="cls-4" d="M784.81,540.52v-19.9h90v19.9c0,6.46-3.2,11.7-7.16,11.7H792C788,552.23,784.81,547,784.81,540.52Z" transform="translate(-309.21 -173.51)"/><path class="cls-4" d="M545.23,385.42c1.21,2.48,2.06,12.82,2.57,17.57h90.5c-.4-34.67-7.51-67.92-21.37-86.27q-27.2-36.36-72.18-36.36-35.37,0-70.73,37.43-31.75-37.43-71.7-37.43-38.73,0-65.92,31.41t-27.19,76.32V450h90V408.68q0-29.68,14.92-29.68,8.17,0,11.43,6.42t3.25,23v13.8h90V408.68q0-29.68,15.15-29.68Q542.1,379,545.23,385.42Z" transform="translate(-309.21 -173.51)"/><path class="cls-4" d="M905.36,185.35q-33,0-63.4,21.79a132.75,132.75,0,0,0-45.35,56.27q-11.79,27-11.79,65.23V401h90V338.53q0-23.26,9.26-35.82t26.35-12.57c1,0,2.48.09,4.57.27V185.62Z" transform="translate(-309.21 -173.51)"/><path class="cls-4" d="M1032.51,190.07q-33,0-63.39,21.79a132.61,132.61,0,0,0-45.35,56.27Q912,295.13,912,333.35v88.54h90V343.24q0-23.25,9.26-35.82t26.34-12.56c1,0,2.49.09,4.57.26V190.34Z" transform="translate(-309.21 -173.51)"/><path class="cls-4" d="M309.38,541.17v-52h90v52c0,6.11-3.2,11.06-7.16,11.06H316.54C312.58,552.22,309.38,547.27,309.38,541.17Z" transform="translate(-309.21 -173.51)"/><path class="cls-8" d="M1045,357.67a74.21,74.21,0,0,1,0,105" transform="translate(-309.21 -173.51)"/><path class="cls-8" d="M1067.87,335.64a105.36,105.36,0,0,1,0,149.08" transform="translate(-309.21 -173.51)"/><path class="cls-8" d="M1022.61,378.42a44.9,44.9,0,0,1,0,63.52" transform="translate(-309.21 -173.51)"/></svg>